<svg xmlns="http://www.w3.org/2000/svg" fill="none" viewBox="0 0 512 512">
    <rect width="512" height="512" fill="#fff" rx="25"/>
    <path fill="#000" d="M125.478 101.01c6.895-.082 10.097.328 15.761 2.052 3.94 1.149 9.522 3.202 12.313 4.597 2.791 1.396 7.306 4.187 10.015 6.075 2.709 1.888 6.649 5.336 8.702 7.47 2.052 2.134 5.171 6.157 6.895 8.866 1.724 2.708 4.023 7.306 5.09 10.261 1.067 2.955 2.544 8.127 3.119 11.492.657 3.366 1.149 8.866 1.149 12.15 0 3.283-.41 8.619-.903 11.902-.492 3.284-1.806 8.538-2.873 11.657-1.067 3.12-3.365 8.127-5.007 11.082-1.642 2.956-5.582 8.045-8.784 11.329-3.201 3.283-7.962 7.388-10.671 9.112-2.709 1.723-6.403 3.776-8.209 4.515-1.806.738-5.829 2.216-9.03 3.119-4.597 1.395-8.045 1.724-17.239 1.724-9.933 0-12.231-.246-17.239-1.888-3.119-1.067-7.224-2.709-9.0297-3.612-1.806-.903-4.9254-2.791-6.9776-4.187-2.0522-1.395-4.7612-2.791-6.1567-3.283-2.0523-.657-2.7911-.493-4.3508 1.149-1.0671 1.067-2.4626 3.776-3.0373 5.992-.8209 2.874-1.3134 10.754-1.6418 26.269-.3283 14.53-.903 23.97-1.6418 27.5-.6567 2.955-2.0522 7.224-3.1194 9.44-1.0671 2.299-3.3656 5.747-5.1716 7.799-1.806 2.052-5.1716 4.843-7.4702 6.157-2.2985 1.313-4.2686 3.201-4.2686 3.776 0 .574.6567 1.149 1.3955 1.395.7388.247 3.3657 1.888 5.7463 3.694s5.4179 4.926 6.7313 6.814c1.3135 1.888 3.1194 5.5 4.0224 8.044.903 2.463 2.0523 6.732 2.6269 9.441.5746 2.709 1.2313 15.268 1.5597 27.91.4104 16.5.903 23.56 1.6418 25.038.5746 1.149 1.888 2.873 2.8731 3.94.9851 1.067 3.6119 2.463 5.8284 3.119 2.2985.657 5.6641 1.232 7.5522 1.232 1.9701 0 3.694.41 4.0224.985.3285.574.7385 3.283.9025 5.91.165 2.709 0 5.828-.492 6.978-.5747 1.477-1.8881 2.38-4.7613 3.201-2.2164.657-4.9253.903-6.0746.657-1.1492-.246-3.9403-.903-6.1567-1.396-2.2164-.492-5.7463-1.723-7.6343-2.709-1.9702-.985-4.8433-3.119-6.4851-4.679-1.5597-1.559-3.9403-5.089-5.2537-7.798-1.3135-2.709-2.709-7.47-3.1194-10.672-.4105-3.201-1.2314-16.254-1.6418-29.142-.5747-16.417-1.2314-24.709-2.0523-27.746-.7388-2.38-2.4627-5.664-4.0224-7.388-1.5597-1.724-4.597-3.94-6.7313-4.925-2.1343-.985-5.4179-2.299-10.1791-4.269v-7.224c0-4.843.3284-7.47.9851-8.127.5746-.492 3.2836-1.806 5.9925-2.791 3.2836-1.231 6.2388-3.119 8.7015-5.582 2.791-2.709 4.1866-5.007 5.1716-8.291.9851-3.366 1.5597-10.097 2.1344-25.858.4104-11.739 1.1492-26.679 1.7239-33.246.5746-6.896.985-33.247 1.0671-62.635.0821-49.746.1642-50.813 1.7239-51.962.9851-.739 3.6119-1.15 6.403-1.15 3.6119 0 5.0895.411 6.403 1.642 1.3955 1.396 1.5597 2.299 1.1492 6.732-.2462 2.791-.2462 6.813.6567 12.477l5.2538-5.582c2.8731-3.037 7.2239-6.813 9.6044-8.291 2.3806-1.478 5.9926-3.612 8.0449-4.679 2.052-1.067 6.485-2.709 9.851-3.776 4.433-1.232 8.209-1.724 14.612-1.806Zm-19.702 18.798c-2.463.985-6.485 3.12-8.9476 4.844-2.4627 1.641-6.0747 4.925-8.0448 7.141-2.0523 2.299-4.597 5.747-5.7463 7.799-1.1492 2.052-3.0373 6.485-4.1866 9.851-1.8059 5.253-2.1343 7.552-2.1343 16.007 0 8.455.3284 10.754 2.1343 16.008 1.1493 3.365 3.0374 7.798 4.1866 9.85 1.1493 2.053 3.694 5.582 5.6642 7.799 1.9701 2.298 5.9925 5.664 8.8657 7.634 2.8728 1.97 8.0448 4.433 11.4108 5.418 3.365.985 8.373 2.217 11.082 2.545 2.955.328 7.388.164 11.082-.411 3.365-.574 8.209-1.806 10.671-2.791 2.463-.985 6.732-3.283 9.441-5.089 2.709-1.806 6.403-4.926 8.209-6.896 1.806-1.97 4.433-5.418 5.91-7.716 1.478-2.299 3.612-6.731 4.843-9.851 1.56-4.022 2.299-7.963 2.627-13.134.247-4.351 0-9.605-.574-12.724-.575-2.955-2.381-8.291-4.105-11.903-2.052-4.351-4.761-8.373-7.963-11.739-2.708-2.873-6.895-6.567-9.358-8.127-2.462-1.642-6.567-3.776-9.03-4.761-2.462-.985-7.223-2.216-10.507-2.709-3.284-.492-6.813-.903-7.799-.821-.985 0-4.432.575-7.552 1.149-3.119.575-7.716 1.642-10.179 2.627Zm114.925-18.798c2.463 0 5.911.492 7.717.985 1.724.575 3.694 1.642 4.269 2.463.985 1.231.903 1.888-.821 4.925-1.067 1.888-2.956 4.104-4.105 4.925-1.642 1.068-3.858 1.478-8.701 1.478-4.926 0-7.306.41-9.687 1.642-1.724.903-3.776 2.298-4.761 3.119-.985.821-2.791 2.955-4.187 4.761-1.395 1.806-3.776 5.747-5.335 8.866-1.56 3.119-2.874 5.418-3.12 5.418s-1.149-1.56-2.052-3.448-3.366-6.074-5.418-9.276c-2.052-3.201-5.336-7.634-7.224-9.851-2.627-3.201-3.448-4.761-3.366-7.224 0-2.134.575-3.612 1.889-4.843 1.559-1.477 2.544-1.724 6.895-1.477 2.791.164 5.336.656 5.746.985.411.328.821 3.529.903 6.977.082 3.448.411 6.814.657 7.552.246.821 1.888-.41 5.5-4.104 2.791-2.955 6.403-6.403 7.963-7.552 1.559-1.232 5.089-3.12 7.798-4.269 3.202-1.313 6.485-1.97 9.44-2.052Zm55 .082c6.896 0 11.247.41 16.008 1.642 3.612.903 9.851 3.365 13.955 5.5 5.829 3.037 8.866 5.336 14.366 10.836 3.858 3.858 8.209 9.029 9.604 11.492 1.478 2.463 3.612 6.896 4.844 9.851 1.231 2.955 2.709 7.962 3.365 11.082.821 4.104 1.067 8.783.821 16.418-.328 8.045-.821 11.985-2.216 16.007-.985 2.956-2.955 7.553-4.269 10.261-1.313 2.709-4.022 6.978-5.91 9.441-1.888 2.462-5.418 6.321-7.881 8.537-2.463 2.216-6.813 5.418-9.769 7.142-2.955 1.724-7.388 3.858-9.85 4.843-2.463.903-7.224 2.217-10.508 2.955-3.283.739-9.112 1.232-12.97 1.232-3.858 0-9.687-.575-12.97-1.314-3.284-.739-8.209-2.134-10.836-3.283-2.709-1.15-6.895-3.202-9.276-4.679-2.381-1.478-6.239-4.351-8.537-6.321-2.299-2.053-5.829-5.911-7.799-8.62-2.052-2.709-4.761-7.059-6.075-9.686-1.313-2.627-3.365-7.963-4.514-11.903-1.806-6.075-2.135-8.784-2.217-17.896 0-7.716.329-12.149 1.396-16.007.821-2.955 2.627-7.963 4.104-11.082 1.478-3.12 3.94-7.553 5.5-9.851 1.56-2.216 4.843-6.157 7.388-8.619 2.545-2.463 6.732-5.993 9.441-7.717 2.708-1.806 6.731-4.104 9.029-5.089 2.299-.986 6.896-2.627 10.262-3.448 4.268-1.232 8.865-1.724 15.514-1.724Zm-20.932 19.537c-3.202 1.478-7.553 4.187-9.769 6.075s-5.5 5.418-7.306 7.963c-1.806 2.544-4.104 6.403-5.172 8.619-.985 2.298-2.462 6.321-3.119 9.03-.739 2.709-1.313 8.291-1.313 12.313 0 4.761.574 9.687 1.723 13.955.903 3.612 2.874 8.784 4.351 11.493 1.478 2.709 4.515 6.896 6.814 9.44 2.298 2.545 6.567 5.911 9.44 7.635 2.873 1.724 7.798 3.94 11 4.925 4.433 1.396 7.716 1.806 14.366 1.724 5.746 0 10.261-.493 13.544-1.478 2.709-.821 7.306-2.709 10.262-4.186 3.037-1.56 7.552-5.008 10.507-7.963 3.612-3.612 6.157-7.142 8.455-11.739 2.135-4.268 3.694-9.03 4.515-13.545.821-4.432 1.067-9.194.821-13.134-.246-3.366-1.067-8.209-1.806-10.672-.739-2.462-2.545-6.895-4.022-9.85-1.478-2.956-4.844-7.717-7.47-10.59-2.627-2.873-7.224-6.649-10.18-8.373-2.955-1.724-8.126-3.94-11.492-4.843-4.269-1.15-8.455-1.642-13.545-1.642-4.104 0-9.03.492-11.082 1.067-2.052.575-6.403 2.299-9.522 3.776Zm134.216-19.209c3.858.164 9.933 1.15 13.545 2.053s9.522 3.283 13.134 5.171c4.105 2.134 8.702 5.582 12.314 8.948 3.94 3.694 5.992 5.254 6.567 4.679.41-.493.821-4.187.821-8.291 0-6.485.164-7.552 1.641-8.619.903-.657 3.53-1.15 5.911-1.15s5.172.329 8.045 1.478l.574 74.209c.329 40.798.903 79.38 1.314 85.701.492 8.62 1.149 12.396 2.38 15.187.903 2.052 2.956 4.843 4.433 6.239 1.56 1.395 3.858 3.201 5.254 3.858 1.395.739 4.186 2.052 10.261 4.597v7.798c0 7.306-.082 7.881-1.806 8.538-.985.41-3.694 1.395-5.91 2.216-2.217.821-5.172 2.463-6.485 3.612-1.314 1.149-3.202 3.776-4.187 5.746-.985 2.053-2.298 5.747-2.791 8.209-.493 2.463-1.313 15.187-1.724 28.321-.492 16.993-1.067 25.12-1.97 28.567-.739 2.627-1.97 6.321-2.873 8.209-.903 1.888-3.037 4.926-4.761 6.568-1.724 1.641-4.762 3.94-6.814 4.925-3.037 1.478-5.992 1.888-16.828 2.381-7.224.328-23.806.656-36.94.574-16.911 0-24.217-.328-25.366-.985-1.396-.903-1.478-1.395-.575-5.5.575-2.463 1.314-5.418 1.724-6.567.411-1.149 1.724-2.463 3.037-3.037 1.642-.739 10.918-1.068 32.262-1.232 28.074-.246 30.209-.328 33.246-1.888 2.463-1.231 3.776-2.709 5.254-5.746 1.97-3.94 2.052-4.925 2.627-27.911.492-19.865.902-24.791 2.216-29.962.903-3.366 2.545-7.799 3.694-9.851 1.149-2.052 3.94-5.418 6.239-7.552 2.298-2.135 5.5-4.515 7.059-5.336 1.56-.821 2.874-1.806 2.874-2.299 0-.492-1.806-1.805-3.941-2.955-2.134-1.231-5.664-4.022-7.798-6.403-2.135-2.38-4.597-5.746-5.5-7.716-.903-1.888-2.217-5.664-2.955-8.373-.986-3.694-1.478-10.918-2.053-28.732-.328-13.052-1.067-25.119-1.559-26.679-.493-1.559-1.642-3.858-2.545-5.089-1.149-1.56-2.381-2.299-4.105-2.299-1.313 0-5.5 1.478-9.194 3.202-3.694 1.724-9.522 4.022-12.97 5.007-3.858 1.067-9.604 1.97-15.186 2.217-6.321.328-10.754.082-14.777-.821-3.201-.657-8.291-2.217-11.492-3.448-3.202-1.231-7.799-3.53-10.261-5.09-2.463-1.559-6.403-4.432-8.62-6.321-2.216-1.888-4.761-4.925-7.141-9.85l3.119-7.224c1.724-3.94 3.366-7.224 3.53-7.224.246 0 2.134 2.298 4.268 5.09 2.135 2.791 5.254 6.485 6.978 8.208 1.724 1.724 5.336 4.351 8.045 5.993 2.709 1.642 7.47 3.776 10.672 4.761 4.432 1.314 7.88 1.806 14.776 1.806 5.992 0 10.835-.492 14.365-1.477 2.956-.821 7.388-2.463 9.851-3.612 2.463-1.232 7.06-4.762 10.343-7.963 3.202-3.119 6.814-7.552 8.045-9.851 1.231-2.298 3.037-6.731 4.023-9.851 1.231-4.104 1.723-7.962 1.805-13.544 0-4.269-.492-9.851-1.067-12.314-.574-2.462-2.462-7.306-4.022-10.671-2.216-4.597-4.515-7.717-9.112-12.314-3.366-3.365-8.045-7.142-10.261-8.373-2.299-1.231-7.06-2.955-10.672-3.858-3.612-.903-8.537-1.642-10.836-1.642-2.38 0-7.141.575-10.671 1.231-3.53.657-8.784 2.381-11.657 3.777-3.94 1.805-6.978 4.186-11.493 8.947-3.365 3.53-7.634 8.291-9.44 10.59-1.806 2.298-3.448 4.186-3.694 4.186s-1.97-3.694-7.388-16.335l1.56-2.627c.903-1.478 3.53-4.597 5.91-6.896 2.381-2.298 7.142-5.91 10.508-8.045 3.365-2.052 8.537-4.515 11.492-5.5 2.955-.985 7.881-2.216 11.082-2.873 3.202-.821 8.62-1.067 12.642-.903Zm-200.216 98.097c.41 0 .738 5.254.738 11.657 0 6.403-.328 12.231-.656 12.806-.411.739-2.791 1.231-6.567 1.478-5.418.328-6.075.164-7.224-1.478-.657-.985-1.232-2.791-1.232-3.94 0-1.15.493-2.791 1.068-3.694.574-.903 3.694-5.09 7.059-9.194 3.366-4.187 6.403-7.635 6.814-7.635Zm192.418 48.926c1.313.246 3.447 1.477 4.761 2.791 1.231 1.313 2.462 3.776 2.791 5.5.328 1.97 0 4.35-.821 6.567-.903 2.298-2.134 3.94-3.776 4.761-1.314.657-3.776 1.231-5.336 1.231-2.216 0-3.53-.656-5.746-2.873-2.545-2.545-2.873-3.365-2.873-7.224 0-3.037.492-5.089 1.723-6.977.986-1.478 2.874-2.955 4.269-3.448 1.396-.493 3.694-.493 5.008-.328Zm-237.239 3.694c1.313-.082 6.156.492 10.671 1.067 7.224 1.067 8.456 1.477 10.179 3.448 1.724 2.052 1.889 2.791 1.478 6.813-.246 2.463-.903 4.843-1.313 5.336-.575.574-3.12.082-7.635-1.56-5.91-2.052-7.716-2.298-14.119-2.052-6.075.246-8.045.657-11.082 2.463-2.299 1.313-4.187 3.201-5.09 5.089-.821 1.642-1.477 4.187-1.477 5.664 0 1.478.821 3.941 1.806 5.418 1.149 1.724 4.679 4.433 9.03 6.978 3.94 2.298 10.753 6.239 15.104 8.701 4.351 2.463 9.44 5.993 11.328 7.799s4.105 4.925 4.926 6.977c.903 2.053 1.806 6.075 1.97 9.03.328 3.859 0 6.732-1.149 10.262-1.15 3.529-2.545 5.992-5.254 8.701-2.463 2.545-5.336 4.351-8.455 5.582-2.627.985-7.553 2.134-11.082 2.627-3.612.492-9.03.657-12.478.328-3.366-.328-8.537-1.231-11.493-1.97-4.432-1.149-5.664-1.806-7.223-4.186-1.314-1.971-1.889-4.105-1.889-6.978 0-2.709.411-4.433 1.232-5.09 1.067-.82 2.463-.492 8.045 1.806 3.694 1.56 8.947 3.284 11.656 3.777 2.873.574 6.65.738 9.03.41 2.299-.328 5.582-1.149 7.306-1.97 1.724-.739 4.105-2.381 5.09-3.612.985-1.231 2.134-3.448 2.38-4.925.247-1.478.082-3.941-.41-5.583-.493-1.641-1.724-3.776-2.791-5.007-1.067-1.231-3.53-3.202-5.582-4.597-2.053-1.396-8.291-4.843-13.873-7.716-6.65-3.448-11.575-6.65-14.12-9.194-2.216-2.135-4.515-4.926-5.089-6.157-.575-1.232-1.56-4.269-1.971-6.732-.656-3.283-.574-5.91.165-9.522.574-2.709 1.97-6.485 3.201-8.373 1.231-1.888 3.858-4.597 5.746-5.911 1.888-1.395 5.418-3.201 7.799-4.104 2.381-.903 6.239-1.97 8.619-2.299 2.381-.328 5.418-.656 6.814-.738Zm187.985.492c2.298.164 6.485.739 9.44 1.149 2.955.493 5.911 1.15 6.567 1.478.657.328 1.888 1.97 2.627 3.612.739 1.642 1.478 4.105 1.478 5.418 0 1.313-.164 3.037-.411 3.694-.246.657-1.149 1.231-2.052 1.231s-4.515-.985-8.045-2.134c-5.418-1.806-7.47-2.134-14.201-1.806-6.732.246-8.538.657-13.135 2.873-3.611 1.724-6.895 4.269-10.179 7.799-2.709 2.873-5.746 7.059-6.731 9.276-1.067 2.298-2.298 6.321-2.791 9.03-.493 2.791-.739 7.47-.41 10.671.328 3.202.985 7.552 1.641 9.851.657 2.299 1.888 5.664 2.873 7.552.986 1.888 3.448 5.172 5.418 7.224 1.971 2.052 5.582 4.597 7.799 5.746 2.298 1.15 6.567 2.463 9.686 3.038 5.008.903 6.403.821 14.612-.903 4.926-1.067 10.18-2.463 11.493-3.12 2.216-1.067 2.545-1.067 3.53.329.574.821 1.067 3.365 1.067 5.664 0 2.873-.411 4.515-1.478 5.418-.821.739-3.283 1.97-5.582 2.627-2.298.738-7.059 1.724-10.671 2.216-3.612.493-9.605.739-13.299.41-3.694-.246-9.112-1.231-11.903-2.216-2.791-.903-6.567-2.545-8.373-3.612-1.806-1.067-4.761-3.283-6.567-5.007-1.806-1.724-4.597-5.008-6.157-7.224-1.56-2.217-3.612-6.485-4.597-9.441-.985-2.955-2.216-8.455-2.791-12.313-.492-3.858-.739-9.358-.41-12.313.328-2.956 1.149-7.717 1.806-10.672.738-2.955 2.462-7.716 3.94-10.672 1.477-2.955 4.433-7.306 6.649-9.768 2.217-2.463 5.993-5.747 8.537-7.306 2.463-1.56 6.896-3.776 9.851-4.844 2.955-1.067 7.881-2.298 11.082-2.626 3.202-.329 7.388-.493 9.687-.329Zm-107.784.329c4.844 0 10.754.328 13.135.903 2.38.574 6.731 2.052 9.686 3.447 3.366 1.56 7.224 4.351 10.426 7.47 3.611 3.53 5.91 6.732 7.962 11.165 1.56 3.365 3.284 8.373 3.776 11.082.493 2.709.903 9.358.903 14.776 0 6.977-.41 11.657-1.559 16.007-.821 3.366-2.463 8.045-3.612 10.262-1.15 2.298-3.612 6.074-5.418 8.373-1.806 2.298-5.664 5.828-8.538 7.634-2.791 1.806-7.306 4.022-10.014 4.843-2.709.821-7.471 1.724-10.672 2.052-3.202.329-8.866.165-12.724-.328-5.172-.657-8.701-1.724-13.545-4.104-5.007-2.463-7.716-4.433-11.41-8.373-2.627-2.874-5.829-7.224-7.06-9.769-1.231-2.463-2.873-6.896-3.694-9.851-.985-3.694-1.395-8.537-1.478-16.007 0-7.553.411-12.232 1.396-16.008.739-2.955 2.545-7.716 4.022-10.671 1.642-3.366 4.515-7.306 7.963-10.754 2.955-2.955 7.06-6.239 9.03-7.306 2.052-1.067 5.746-2.545 8.209-3.366 3.037-.985 7.142-1.477 13.216-1.477Zm-15.35 17.156c-1.806 1.232-4.433 3.53-5.747 5.008-1.395 1.559-3.448 4.843-4.761 7.306-1.231 2.462-2.791 7.306-3.53 10.671-.821 4.023-1.149 8.209-.903 11.903.246 3.202 1.149 8.127 2.135 11.082.903 2.956 2.955 7.306 4.597 9.687 1.641 2.381 4.679 5.582 6.813 7.224 2.134 1.56 6.321 3.612 9.194 4.515 2.955.903 6.813 1.642 8.619 1.642s5.336-.575 7.799-1.232c2.463-.656 5.992-2.134 7.798-3.201 1.806-1.067 4.68-3.448 6.321-5.336 1.642-1.888 3.859-4.925 4.844-6.896.985-1.97 2.298-5.335 2.873-7.552.574-2.298 1.149-8.127 1.149-13.134 0-6.649-.41-10.425-1.56-14.366-.903-2.955-2.873-7.224-4.433-9.44-1.559-2.299-4.597-5.5-6.813-7.142-2.216-1.642-5.91-3.612-8.127-4.351-2.216-.738-6.649-1.231-9.851-1.231-3.201 0-7.388.657-9.44 1.313-2.052.657-5.172 2.299-6.977 3.53Zm207.44 17.403c2.134.082 4.351.739 4.925 1.314.903.903.821 1.313-.574 2.216-.986.657-2.463.985-3.694.657-1.15-.246-2.874-.082-3.941.41-1.231.575-1.806 1.56-1.642 2.791.165 1.314 1.478 2.545 4.269 4.023 2.299 1.231 5.008 3.283 6.075 4.515 1.477 1.724 1.806 2.873 1.477 4.761-.246 1.313-1.395 3.283-2.544 4.269-1.15.985-3.612 2.052-5.583 2.298-1.888.246-4.761.164-6.403-.246-2.052-.493-2.873-1.232-2.873-2.299 0-1.395.493-1.559 4.762-1.395 4.268.164 4.843 0 5.746-1.806.821-1.642.821-2.217-.164-3.366-.657-.739-2.709-1.97-4.433-2.709-1.724-.739-3.941-2.298-4.761-3.366-.821-1.149-1.56-3.037-1.478-4.268 0-1.232.41-2.955.821-3.941.41-.985 2.052-2.216 3.448-2.873 1.559-.656 4.35-1.067 6.567-.985Zm-82.254.739c1.56 0 4.351.575 6.157 1.396s4.104 2.544 5.171 3.858c1.068 1.313 2.053 3.694 2.381 5.254.246 1.559.082 4.268-.41 5.91-.657 2.134-1.724 3.448-3.366 4.269-1.314.656-2.955 1.231-3.448 1.231-.574 0-.739-.903-1.642-1.56-1.477-1.067-1.477-.738-1.888-3.94-.328-2.709.657-3.694-.574-5.5-.821-1.149-2.217-1.642-3.038-1.724-.821 0-1.97.082-2.709.903-.738.821-1.641 2.545-1.97 3.94-.492 1.971-.41 3.859 1.396 5.665 1.231 1.231 3.694-.247 3.694 0 0 .246-2.052 2.134-2.955 2.134s-2.217-.657-2.956-1.478c-.985-1.067-1.231-2.544-.985-5.664.247-3.037.821-4.597 1.97-5.5.903-.657 3.12-1.313 4.926-1.313 2.791-.082 3.448.246 4.433 2.216.656 1.231.903 3.284.656 4.515-.328 1.642 0 2.709 1.15 3.94 1.477 1.478 1.806 1.478 3.447.493.985-.657 2.135-2.217 2.545-3.448.411-1.313.493-3.53.164-5.007-.328-1.478-1.724-4.023-3.201-5.582-1.478-1.642-3.94-3.366-5.582-3.53-2.217-.164-3.612-.903-6.485.164-2.135.739-5.008 2.709-6.732 4.679-1.97 2.134-3.283 4.433-3.612 6.403-.328 1.724-.082 4.515.493 6.403.575 1.806 2.052 4.187 3.201 5.336 1.232 1.149 3.448 2.545 7.881 4.104l-2.545.493c-1.806-.246-1.313-.246-2.298-.903-.985-.657-5.911-3.694-6.65-4.761-.656-.985-1.477-3.694-1.806-5.911-.41-2.955-.164-5.254.821-8.045.821-2.38 2.381-4.679 4.023-5.91 1.477-1.149 3.776-2.381 5.089-2.791 1.314-.328 3.694-.739 5.254-.739Zm23.642 0c.082 0 .821.164 1.642.411 1.231.41 1.395 1.559 1.231 8.865-.164 7.306 0 8.62 1.478 10.59 1.149 1.559 2.38 2.298 3.94 2.216 1.231 0 2.709-.328 3.201-.657.493-.328 1.396-1.641 1.806-2.873.411-1.231.903-5.746.903-10.015 0-6.156.247-7.88 1.232-8.209.656-.246 1.806-.082 2.544.165 1.15.492 1.314 1.97 1.068 10.589-.329 9.851-.329 10.097-2.791 12.56-1.806 1.806-3.448 2.627-6.157 2.955-2.463.328-4.761 0-6.731-.903-2.135-.903-3.448-2.216-4.269-4.186-.821-1.889-1.314-5.993-1.396-11.821-.164-7.224.082-9.03.985-9.359.493-.082 1.15-.328 1.314-.328Zm33.739-.082c6.895 0 8.865.246 9.686 1.231.821.985.821 1.396 0 1.806-.574.329-1.806.575-2.873.657-.985 0-2.298.493-2.873 1.149-.739.739-1.231 4.433-1.478 11.082-.328 8.045-.656 10.015-1.641 10.179-.657.083-1.642-.082-2.217-.41-.739-.41-.985-3.448-.985-9.933 0-8.291-.164-9.44-1.642-10.836-.903-.903-2.545-1.559-3.694-1.559s-2.134-.493-2.216-1.067c-.082-.575.164-1.314.574-1.642.411-.411 4.597-.657 9.359-.657Zm-11.165 42.194c2.217.082 4.351.493 4.762.903.41.41.656 1.97.492 3.284-.164 1.313-3.037 11.492-6.239 22.574-3.283 11.082-6.32 20.605-6.895 21.179-.575.575-2.545 1.067-4.515.985-2.381 0-3.612-.41-3.94-1.231-.247-.657.492-5.172 1.641-10.015 1.068-4.843 2.956-13.791 4.187-19.866 1.149-6.074 2.545-12.313 3.119-13.709.493-1.477 1.56-2.955 2.217-3.365.657-.411 3.037-.821 5.171-.739Z"/>
  </svg>
  